<svg width="23" height="19" viewBox="0 0 23 19" fill="none" xmlns="http://www.w3.org/2000/svg">
<path d="M2.78828 2.55959V1.4135C2.79471 1.31712 2.7813 1.22041 2.74892 1.12984C2.71654 1.03926 2.66595 0.956884 2.60052 0.888204C2.53508 0.819524 2.45631 0.766115 2.36944 0.731533C2.28257 0.696951 2.1896 0.681991 2.09673 0.68765C1.97517 0.679374 1.85369 0.70514 1.74499 0.762259C1.63628 0.819379 1.54434 0.905756 1.47875 1.01238C1.41896 0.908955 1.33341 0.824201 1.23112 0.767051C1.12883 0.709901 1.01359 0.68247 0.897548 0.68765C0.796393 0.68234 0.695658 0.704574 0.605326 0.752151C0.514994 0.799728 0.438203 0.870996 0.382561 0.95889V0.733493H9.82259e-08V2.55959H0.38624V1.55485C0.378024 1.49241 0.383193 1.42885 0.401378 1.36872C0.419562 1.30859 0.450312 1.25337 0.491431 1.20702C0.532549 1.16067 0.58302 1.12432 0.639236 1.10058C0.695451 1.07684 0.756023 1.06628 0.816621 1.06968C1.07044 1.06968 1.19918 1.24159 1.19918 1.55103V2.56723H1.58542V1.55485C1.57754 1.49247 1.58295 1.42905 1.60126 1.36907C1.61956 1.3091 1.65033 1.25403 1.69138 1.20775C1.73243 1.16148 1.78276 1.12513 1.83882 1.10127C1.89487 1.07741 1.95529 1.06663 2.0158 1.06968C2.27698 1.06968 2.40204 1.24159 2.40204 1.55103V2.56723L2.78828 2.55959ZM8.50279 0.733493H7.87377V0.179554H7.48753V0.733493H7.13808V1.09642H7.49489V1.93688C7.49489 2.36093 7.65307 2.61307 8.10552 2.61307C8.27456 2.61366 8.44032 2.56467 8.58372 2.47172L8.47337 2.13172C8.37077 2.19527 8.25434 2.23076 8.13495 2.23486C7.95102 2.23486 7.88113 2.11262 7.88113 1.92924V1.09642H8.50647L8.50279 0.733493ZM11.7656 0.68765C11.6723 0.684801 11.58 0.70814 11.4985 0.755204C11.4169 0.802269 11.3491 0.871317 11.3021 0.95507V0.733493H10.9232V2.55959H11.3058V1.53575C11.3058 1.23395 11.4309 1.06586 11.6736 1.06586C11.7555 1.0647 11.8367 1.08027 11.9127 1.1117L12.0304 0.729674C11.9431 0.697213 11.851 0.680419 11.7582 0.68001L11.7656 0.68765ZM6.83277 0.878664C6.61622 0.74495 6.36725 0.67865 6.11546 0.68765C5.67037 0.68765 5.37977 0.909226 5.37977 1.27215C5.37977 1.57013 5.59312 1.75351 5.98672 1.81081L6.17064 1.83756C6.38031 1.86812 6.47963 1.92542 6.47963 2.02857C6.47963 2.16992 6.33985 2.25015 6.07868 2.25015C5.8686 2.25646 5.66259 2.18918 5.4938 2.05913L5.30988 2.36857C5.53272 2.53017 5.79963 2.6132 6.07132 2.60543C6.57895 2.60543 6.87323 2.35711 6.87323 2.00947C6.87323 1.66182 6.64149 1.52047 6.25892 1.46317L6.075 1.43642C5.90947 1.4135 5.77704 1.37912 5.77704 1.25687C5.77704 1.13462 5.90211 1.04294 6.11178 1.04294C6.30558 1.04527 6.49556 1.0992 6.66356 1.19957L6.83277 0.878664ZM17.0792 0.68765C16.9859 0.684801 16.8936 0.70814 16.812 0.755204C16.7305 0.802269 16.6626 0.871317 16.6157 0.95507V0.733493H16.2368V2.55959H16.6193V1.53575C16.6193 1.23395 16.7444 1.06586 16.9872 1.06586C17.069 1.0647 17.1503 1.08027 17.2263 1.1117L17.344 0.729674C17.2566 0.697213 17.1646 0.680419 17.0718 0.68001L17.0792 0.68765ZM12.15 1.64272C12.1454 1.77105 12.1667 1.89895 12.2125 2.01824C12.2583 2.13752 12.3275 2.24557 12.4158 2.33547C12.5041 2.42537 12.6095 2.49514 12.7253 2.54031C12.841 2.58548 12.9646 2.60506 13.088 2.59779C13.3177 2.60993 13.5434 2.53223 13.7207 2.38003L13.5368 2.05913C13.4045 2.16387 13.2433 2.22148 13.077 2.2234C12.9356 2.21152 12.8036 2.14479 12.7075 2.03648C12.6113 1.92818 12.5579 1.78624 12.5579 1.6389C12.5579 1.49156 12.6113 1.34962 12.7075 1.24132C12.8036 1.13301 12.9356 1.06628 13.077 1.0544C13.2433 1.05632 13.4045 1.11393 13.5368 1.21867L13.7207 0.897765C13.5434 0.745565 13.3177 0.667873 13.088 0.68001C12.9646 0.672744 12.841 0.692324 12.7253 0.737494C12.6095 0.782664 12.5041 0.852429 12.4158 0.942327C12.3275 1.03223 12.2583 1.14028 12.2125 1.25957C12.1667 1.37885 12.1454 1.50675 12.15 1.63508V1.64272ZM15.7328 1.64272V0.733493H15.3503V0.95507C15.2853 0.868254 15.2014 0.798727 15.1055 0.75223C15.0095 0.705733 14.9043 0.683597 14.7985 0.68765C14.5546 0.68765 14.3207 0.788274 14.1482 0.967385C13.9758 1.14649 13.8789 1.38942 13.8789 1.64272C13.8789 1.89602 13.9758 2.13895 14.1482 2.31806C14.3207 2.49717 14.5546 2.59779 14.7985 2.59779C14.9043 2.60184 15.0095 2.57971 15.1055 2.53321C15.2014 2.48671 15.2853 2.41719 15.3503 2.33037V2.55195H15.7328V1.64272ZM14.3093 1.64272C14.3154 1.53523 14.3516 1.43194 14.4135 1.34557C14.4754 1.2592 14.5603 1.19352 14.6577 1.15661C14.7551 1.1197 14.8608 1.11318 14.9617 1.13786C15.0626 1.16253 15.1544 1.21732 15.2257 1.29547C15.297 1.37363 15.3448 1.47173 15.3631 1.57772C15.3814 1.6837 15.3694 1.79293 15.3287 1.89196C15.288 1.99099 15.2203 2.07549 15.1339 2.13506C15.0476 2.19463 14.9463 2.22666 14.8426 2.22722C14.7698 2.22818 14.6976 2.21348 14.6305 2.18404C14.5634 2.1546 14.5029 2.11106 14.4528 2.05616C14.4027 2.00126 14.3641 1.93619 14.3394 1.86503C14.3147 1.79388 14.3044 1.71819 14.3093 1.64272V1.64272ZM9.69278 0.68765C9.44888 0.691197 9.21633 0.79522 9.04628 0.976838C8.87623 1.15846 8.78262 1.40279 8.78604 1.65609C8.78945 1.90939 8.88961 2.15091 9.06449 2.32751C9.23937 2.50411 9.47463 2.60134 9.71853 2.59779C9.98315 2.6119 10.2434 2.5234 10.4487 2.34947L10.2648 2.05531C10.1195 2.17628 9.93962 2.24349 9.75347 2.24633C9.62702 2.25762 9.50131 2.21724 9.40307 2.13377C9.30484 2.0503 9.24183 1.93032 9.22745 1.79935H10.5333C10.5333 1.74969 10.5333 1.70003 10.5333 1.64654C10.5333 1.0735 10.1912 0.691471 9.6983 0.691471L9.69278 0.68765ZM9.69278 1.04294C9.75003 1.04167 9.80695 1.05213 9.86031 1.07371C9.91366 1.0953 9.9624 1.12759 10.0037 1.16875C10.0451 1.2099 10.0782 1.25911 10.1012 1.31356C10.1242 1.36801 10.1367 1.42664 10.1379 1.48609H9.21826C9.22492 1.36347 9.27754 1.24843 9.36485 1.16561C9.45217 1.08278 9.56724 1.03875 9.68542 1.04294H9.69278ZM19.277 1.64654V1.16586e-07H18.9092V0.95507C18.8442 0.868254 18.7603 0.798727 18.6644 0.75223C18.5684 0.705733 18.4632 0.683597 18.3574 0.68765C18.1135 0.68765 17.8796 0.788274 17.7072 0.967385C17.5347 1.14649 17.4378 1.38942 17.4378 1.64272C17.4378 1.89602 17.5347 2.13895 17.7072 2.31806C17.8796 2.49717 18.1135 2.59779 18.3574 2.59779C18.4632 2.60184 18.5684 2.57971 18.6644 2.53321C18.7603 2.48671 18.8442 2.41719 18.9092 2.33037V2.55195H19.277V1.64654ZM19.9153 2.29408C19.9392 2.29377 19.9629 2.29832 19.9852 2.30745C20.0063 2.3164 20.0256 2.32936 20.0422 2.34565C20.0583 2.36212 20.0714 2.38155 20.0808 2.40296C20.0901 2.42526 20.0949 2.44932 20.0949 2.47363C20.0949 2.49794 20.0901 2.522 20.0808 2.54431C20.0714 2.56571 20.0583 2.58514 20.0422 2.60161C20.0256 2.61791 20.0063 2.63086 19.9852 2.63981C19.9631 2.6499 19.9393 2.65511 19.9153 2.6551C19.8804 2.65482 19.8463 2.64426 19.817 2.62465C19.7877 2.60503 19.7644 2.57717 19.7497 2.54431C19.7405 2.52197 19.7358 2.49793 19.7358 2.47363C19.7358 2.44933 19.7405 2.42529 19.7497 2.40296C19.7591 2.38155 19.7722 2.36212 19.7884 2.34565C19.8049 2.32936 19.8242 2.3164 19.8454 2.30745C19.8693 2.29755 19.895 2.293 19.9208 2.29408H19.9153ZM19.9153 2.61689C19.9336 2.61701 19.9518 2.6131 19.9686 2.60543C19.9844 2.59809 19.9988 2.58773 20.0109 2.57487C20.0339 2.5488 20.0467 2.51472 20.0467 2.47936C20.0467 2.444 20.0339 2.40992 20.0109 2.38385C19.9988 2.37096 19.9844 2.36059 19.9686 2.35329C19.9518 2.34568 19.9336 2.34177 19.9153 2.34183C19.8969 2.34193 19.8788 2.34583 19.8619 2.35329C19.8454 2.36033 19.8304 2.37072 19.8178 2.38385C19.7948 2.40992 19.782 2.444 19.782 2.47936C19.782 2.51472 19.7948 2.5488 19.8178 2.57487C19.8304 2.58796 19.8454 2.59835 19.8619 2.60543C19.8805 2.61374 19.9006 2.61766 19.9208 2.61689H19.9153ZM19.9263 2.38959C19.9435 2.38872 19.9604 2.39413 19.9741 2.40487C19.9797 2.40971 19.9842 2.41587 19.9871 2.42285C19.9899 2.42982 19.9912 2.43741 19.9907 2.44498C19.9909 2.45132 19.9899 2.45766 19.9877 2.46358C19.9855 2.46949 19.9821 2.47487 19.9778 2.47936C19.9671 2.48942 19.9535 2.49547 19.9392 2.49655L19.9925 2.55959H19.9502L19.9005 2.49655H19.884V2.55959H19.849V2.3915L19.9263 2.38959ZM19.8858 2.42206V2.4679H19.9263C19.9335 2.47013 19.9412 2.47013 19.9484 2.4679C19.9497 2.46523 19.9503 2.46229 19.9503 2.45931C19.9503 2.45632 19.9497 2.45338 19.9484 2.45071C19.9497 2.44804 19.9503 2.4451 19.9503 2.44211C19.9503 2.43913 19.9497 2.43618 19.9484 2.43352C19.9412 2.43129 19.9335 2.43129 19.9263 2.43352L19.8858 2.42206ZM17.8627 1.64654C17.8688 1.53905 17.905 1.43576 17.9669 1.34939C18.0288 1.26302 18.1137 1.19733 18.2111 1.16043C18.3085 1.12352 18.4142 1.11701 18.5151 1.14168C18.616 1.16635 18.7078 1.22114 18.7791 1.29929C18.8504 1.37745 18.8982 1.47556 18.9165 1.58154C18.9348 1.68752 18.9228 1.79675 18.8821 1.89578C18.8414 1.99481 18.7737 2.07931 18.6874 2.13888C18.601 2.19845 18.4997 2.23048 18.396 2.23104C18.3232 2.232 18.251 2.2173 18.1839 2.18786C18.1168 2.15842 18.0563 2.11488 18.0062 2.05998C17.9561 2.00508 17.9175 1.94001 17.8928 1.86885C17.8681 1.7977 17.8578 1.72201 17.8627 1.64654V1.64654ZM4.94571 1.64654V0.733493H4.56315V0.95507C4.49818 0.868254 4.41426 0.798727 4.31832 0.75223C4.22239 0.705733 4.11718 0.683597 4.01138 0.68765C3.76748 0.68765 3.53357 0.788274 3.36111 0.967385C3.18865 1.14649 3.09176 1.38942 3.09176 1.64272C3.09176 1.89602 3.18865 2.13895 3.36111 2.31806C3.53357 2.49717 3.76748 2.59779 4.01138 2.59779C4.11718 2.60184 4.22239 2.57971 4.31832 2.53321C4.41426 2.48671 4.49818 2.41719 4.56315 2.33037V2.55195H4.94571V1.64654ZM3.52214 1.64654C3.52824 1.53905 3.56447 1.43576 3.62638 1.34939C3.68829 1.26302 3.77317 1.19733 3.87057 1.16043C3.96797 1.12352 4.07364 1.11701 4.17456 1.14168C4.27548 1.16635 4.36725 1.22114 4.43856 1.29929C4.50988 1.37745 4.55764 1.47556 4.57594 1.58154C4.59425 1.68752 4.58232 1.79675 4.54161 1.89578C4.50089 1.99481 4.43319 2.07931 4.34682 2.13888C4.26045 2.19845 4.1592 2.23048 4.05552 2.23104C3.98239 2.23254 3.90976 2.21823 3.84223 2.18902C3.77471 2.15982 3.71377 2.11636 3.66327 2.0614C3.61277 2.00645 3.57383 1.94119 3.5489 1.86977C3.52397 1.79836 3.5136 1.72234 3.51846 1.64654H3.52214Z" transform="translate(1.89722 15.5465)" fill="white"/>
<path d="M5.7936 0H0V10.8133H5.7936V0Z" transform="translate(8.60425 2.36487)" fill="#FF5F00"/>
<path d="M8.18363 6.87746C8.18256 5.83592 8.4097 4.80777 8.84785 3.87088C9.286 2.93399 9.92368 2.11293 10.7126 1.46986C9.73579 0.672606 8.56272 0.176843 7.32746 0.0392286C6.0922 -0.0983854 4.84458 0.127702 3.72718 0.69165C2.60979 1.2556 1.66771 2.13466 1.00862 3.22836C0.349522 4.32205 2.54521e-08 5.58627 2.54521e-08 6.87651C2.54521e-08 8.16675 0.349522 9.43096 1.00862 10.5247C1.66771 11.6184 2.60979 12.4974 3.72718 13.0614C4.84458 13.6253 6.0922 13.8514 7.32746 13.7138C8.56272 13.5762 9.73579 13.0804 10.7126 12.2832C9.92392 11.6403 9.2864 10.8195 8.84826 9.88299C8.41012 8.94646 8.18284 7.91869 8.18363 6.87746V6.87746Z" transform="translate(0.787842 0.895447)" fill="#EB001B"/>
<path d="M10.7136 6.87826C10.7135 8.1686 10.3639 9.43289 9.70471 10.5266C9.0455 11.6204 8.10327 12.4994 6.98574 13.0633C5.86821 13.6271 4.62047 13.8531 3.38513 13.7153C2.1498 13.5775 0.976725 13.0815 2.80645e-07 12.284C0.78835 11.6405 1.4257 10.8195 1.86395 9.88294C2.30221 8.94635 2.52992 7.91863 2.52992 6.8773C2.52992 5.83598 2.30221 4.80825 1.86395 3.87167C1.4257 2.93508 0.78835 2.11409 2.80645e-07 1.47065C0.976725 0.673152 2.1498 0.177147 3.38513 0.0393359C4.62047 -0.0984757 5.86821 0.127466 6.98574 0.691334C8.10327 1.2552 9.0455 2.13425 9.70471 3.22798C10.3639 4.32172 10.7135 5.58601 10.7136 6.87635V6.87826Z" transform="translate(11.502 0.89447)" fill="#F79E1B"/>
<path d="M0.132427 0.267419V0.0458439H0.218868V-4.66343e-07H-3.92905e-07V0.0458439H0.0938014V0.267419H0.132427ZM0.557291 0.267419V-4.66343e-07H0.491078L0.413831 0.191014L0.336583 -4.66343e-07H0.277726V0.267419H0.325545V0.0668556L0.397275 0.240678H0.446936L0.518666 0.0668556V0.26933L0.557291 0.267419Z" transform="translate(21.4495 11.764)" fill="#F79E1B"/>
</svg>
