<svg width="28" height="9" viewBox="0 0 28 9" fill="none" xmlns="http://www.w3.org/2000/svg">
<path d="M10.6296 0.154728L6.96111 8.85817H4.57593L2.77407 1.9212C2.67037 1.4957 2.56667 1.34097 2.24259 1.16046C1.68519 0.863897 0.790741 0.580229 0 0.412607L0.0518519 0.154728H3.90185C4.39444 0.154728 4.83518 0.477077 4.93889 1.04441L5.88519 6.07307L8.25741 0.154728H10.6296ZM20.0019 6.02149C20.0148 3.72636 16.813 3.59742 16.8259 2.5788C16.8389 2.26934 17.137 1.9341 17.7852 1.84384C18.1093 1.80516 19.0037 1.76648 20.0148 2.23066L20.4167 0.386819C19.8722 0.19341 19.1722 0 18.3037 0C16.0741 0 14.4926 1.18625 14.4796 2.87536C14.4667 4.12607 15.6074 4.82235 16.463 5.24785C17.3444 5.67335 17.6426 5.94413 17.6426 6.33095C17.6296 6.91117 16.9426 7.16905 16.2944 7.18195C15.1537 7.19484 14.4926 6.87249 13.9741 6.62751L13.5593 8.53582C14.0907 8.7808 15.063 8.98711 16.0741 9C18.4463 9 19.9889 7.82665 20.0019 6.02149ZM25.913 8.85817H28L26.1722 0.154728H24.2407C23.813 0.154728 23.437 0.399713 23.2815 0.786533L19.8852 8.84527H22.2574L22.7241 7.54298H25.6278L25.913 8.85817ZM23.3852 5.7765L24.5778 2.51433L25.2648 5.7765H23.3852ZM13.8574 0.154728L11.9907 8.85817H9.73518L11.6019 0.154728H13.8574Z" fill="url(#paint0_linear)"/>
<defs>
<linearGradient id="paint0_linear" x2="1" gradientUnits="userSpaceOnUse" gradientTransform="translate(0 -9.42819) scale(28.0001 27.8511)">
<stop stop-color="white"/>
<stop offset="1" stop-color="white"/>
</linearGradient>
</defs>
</svg>
